<svg id="Layer_1" data-name="Layer 1" xmlns="http://www.w3.org/2000/svg" viewBox="0 0 244.05 231.81"><defs><style>.cls-1{fill:#e0210e;stroke:#e0210e;stroke-miterlimit:10;}</style></defs><title>heartRed</title><path class="cls-1" d="M149.59,268.47c-21.1-17.33-83.21-70.3-110.82-126-5.26-10.6-11.55-25.92-10.08-45,.79-10.17,3.14-40.56,30.23-54,23.46-11.65,52.88-4.32,70.52,9a60.32,60.32,0,0,1,20.15,27h.82a60.32,60.32,0,0,1,20.15-27c17.64-13.32,47.06-20.65,70.52-9,27.09,13.44,29.44,43.83,30.23,54,1.47,19.08-4.82,34.4-10.08,45-27.61,55.7-89.72,108.67-110.82,126Z" transform="translate(-27.98 -37.16)"/></svg>